<?xml version="1.0" encoding="UTF-8"?>
<svg width="320px" height="280px" viewBox="0 0 320 280" version="1.1" xmlns="http://www.w3.org/2000/svg" xmlns:xlink="http://www.w3.org/1999/xlink">
    <title>空内容</title>
    <defs>
        <rect id="path-1" x="0" y="0" width="320" height="280"></rect>
        <linearGradient x1="50%" y1="0%" x2="50%" y2="60.7002988%" id="linearGradient-3">
            <stop stop-color="#90969E" stop-opacity="0.2" offset="0%"></stop>
            <stop stop-color="#90969E" stop-opacity="0" offset="100%"></stop>
        </linearGradient>
    </defs>
    <g id="页面-1" stroke="none" stroke-width="1" fill="none" fill-rule="evenodd">
        <g id="昇腾-空状态插画-light" transform="translate(-570.000000, 0.000000)">
            <g id="空内容" transform="translate(570.000000, 0.000000)">
                <mask id="mask-2" fill="white">
                    <use xlink:href="#path-1"></use>
                </mask>
                <g id="蒙版"></g>
                <path d="M237.437402,204 C303.205681,217.145303 349,246.520027 349,280.648456 L-29,280.648456 C-29,246.520027 16.7943195,217.145303 82.5625976,204 C84.3096461,207.918569 88.2360235,210.648456 92.8,210.648456 L227.2,210.648456 C231.742542,210.648456 235.65346,207.944151 237.410628,204.057665 Z" id="形状结合" fill="url(#linearGradient-3)" fill-rule="nonzero" mask="url(#mask-2)"></path>
                <path d="M238.410047,123.892173 L238.410047,199.492173 C238.410047,205.677762 233.395636,210.692173 227.210047,210.692173 L92.8100471,210.692173 C86.6244579,210.692173 81.6100471,205.677762 81.6100471,199.492173 L81.6100471,123.892173 L238.410047,123.892173 Z M185.210047,147.692173 L134.810047,147.692173 C131.717252,147.692173 129.210047,150.199378 129.210047,153.292173 C129.210047,156.384967 131.717252,158.892173 134.810047,158.892173 L185.210047,158.892173 C188.302842,158.892173 190.810047,156.384967 190.810047,153.292173 C190.810047,150.199378 188.302842,147.692173 185.210047,147.692173 Z" id="形状结合备份-2" fill="#90969E" fill-rule="nonzero" opacity="0.400000006" mask="url(#mask-2)"></path>
                <path d="M218.810047,79.0941728 L238.410047,123.892173 L218.810047,123.892173 L218.810047,79.0941728 Z M101.210047,123.892173 L81.6100471,123.892173 L101.210047,79.0921728 L101.210047,123.892173 Z" id="形状结合备份-3" fill="#90969E" fill-rule="nonzero" opacity="0.5" mask="url(#mask-2)"></path>
                <rect id="矩形备份-2" fill="#90969E" fill-rule="nonzero" opacity="0.600000024" mask="url(#mask-2)" x="101.210047" y="79.0921728" width="117.6" height="44.8"></rect>
                <polygon id="路径-8备份" fill="#90969E" fill-rule="nonzero" opacity="0.5" mask="url(#mask-2)" points="141.410559 53.8475694 150.210047 49.6841954 118.010047 30.0921728 121.361239 61.0671321 130.589084 57.2040605 137.304289 65.0921728 137.304289 55.3936496 123.043124 36.708907"></polygon>
                <path d="M137.610047,69.2921728 C139.701572,88.7222794 146.627136,98.4373327 158.386741,98.4373327 C176.026148,98.4373327 181.086337,71.686443 167.517206,71.4205355 C153.948075,71.1546279 152.626558,98.3465504 188.789562,102.281795 C224.952565,106.217039 207.34024,130.769654 195.966353,130.892173" id="路径-9备份" stroke="#90969E" stroke-width="1.06234007" opacity="0.5" stroke-linecap="round" stroke-linejoin="round" stroke-dasharray="4.249360275268554,4.249360275268554" mask="url(#mask-2)"></path>
                <path d="M263.681865,176.460444 C262.405444,178.405113 261.466999,179.573766 260.866532,179.966403 C259.160988,181.081637 257.6228,181.332062 256.580041,181.332062 C254.189877,181.332062 259.116003,180.755445 260.866532,178.802313 C262.033552,177.500226 263.414723,175.530179 265.010047,172.892173 L263.681865,172.892173 L262.214468,174.734607 C261.755956,174.153978 261.163013,173.863664 260.435639,173.863664 C259.344579,173.863664 256.526424,174.342329 255.447041,177.425798 C254.727452,179.481445 253.248454,181.290993 251.010047,182.854442 C254.24417,184.50475 257.386034,184.50475 260.435639,182.854442 C263.485245,181.204134 264.56732,179.072801 263.681865,176.460444 Z" id="路径-14备份" fill="#90969E" fill-rule="nonzero" opacity="0.300000012" mask="url(#mask-2)" transform="translate(258.010047, 178.492173) rotate(-3.000000) translate(-258.010047, -178.492173) "></path>
                <path d="M70.9521373,102.136647 C68.7822213,105.539818 67.1868661,107.584961 66.1660721,108.272077 C63.2666474,110.223735 60.6517273,110.661978 58.8790362,110.661978 C54.8157583,110.661978 63.1901726,109.652899 66.1660721,106.234919 C68.1500053,103.956265 70.4979967,100.508683 73.2100471,95.8921728 L70.9521373,95.8921728 L68.4575626,99.1164329 C67.6780926,98.1003324 66.6700895,97.5922823 65.4335538,97.5922823 C63.5787506,97.5922823 58.7878884,98.4299457 56.9529368,103.826017 C55.7296358,107.423399 53.2153393,110.590107 49.4100471,113.326144 C54.9080564,116.214182 60.2492252,116.214182 65.4335538,113.326144 C70.6178828,110.438105 72.4574105,106.708273 70.9521373,102.136647 Z" id="路径-14备份" fill="#90969E" fill-rule="nonzero" opacity="0.300000012" mask="url(#mask-2)" transform="translate(61.310047, 105.692173) rotate(-3.000000) translate(-61.310047, -105.692173) "></path>
                <path d="M281.54383,142.79296 C281.929994,142.774626 282.257905,143.07281 282.27624,143.458975 C282.744464,153.320635 277.518105,160.908535 266.715253,166.142343 C266.367335,166.310904 265.948647,166.165506 265.780087,165.817589 C265.611527,165.469671 265.756924,165.050984 266.104842,164.882423 C276.432568,159.878805 281.317529,152.786565 280.877815,143.525371 C280.859481,143.139206 281.157665,142.811295 281.54383,142.79296 Z" id="路径-6" fill="#90969E" fill-rule="nonzero" opacity="0.300000012" mask="url(#mask-2)"></path>
            </g>
        </g>
    </g>
</svg>